<svg width="164" height="32" xmlns="http://www.w3.org/2000/svg">
  <g fill="none" fill-rule="evenodd">
    <path d="M2 29.277 2.858 4.46h7.234c3.506 8.372 4.625 11.162 5.408 13.438.858-2.35 1.94-5.03 5.446-13.438h6.936l.821 24.818h-5.259c-.41-11.564-.522-14.648-.56-18.503-.97 2.753-1.976 5.433-5.705 14.355h-3.88C9.572 16.023 8.75 14.079 7.595 10.81c-.038 3.598-.15 7.16-.522 18.466H2ZM45.176 17.309c0-2.46-1.23-3.414-3.692-3.414-2.274 0-4.027 1.432-4.14 4.258h7.796c.036-.22.036-.513.036-.844m-3.953 12.483c-5.93 0-8.988-3.782-8.988-9.399 0-6.83 4.29-10.06 9.398-10.06 7.012 0 8.206 4.443 8.206 9.252 0 .404 0 1.359-.113 1.91H37.195c0 .22.038.623.075.88.298 1.873 1.567 3.561 4.811 3.561 2.238 0 4.401-.477 6.229-1.394l1.38 2.974c-2.835 1.614-5.26 2.276-8.467 2.276M66.974 14.629c-.858-.257-2.088-.404-3.02-.404-2.985 0-5.036 1.47-5.036 5.837 0 4.59 2.312 5.58 4.103 5.58 1.602 0 2.796-.513 3.953-1.21v-9.803Zm.149 14.648-.113-1.726c-1.417 1.395-3.356 2.13-5.742 2.13-4.923 0-7.684-3.231-7.684-9.325 0-7.049 4.066-9.913 9.697-9.913 1.118 0 2.835.184 3.693.441V2.661L72.082 2v27.277h-4.96Z" fill="#01519E"/>
    <path d="M81.886 5.34c0 1.481-1.219 2.681-2.723 2.681-1.504 0-2.723-1.2-2.723-2.68 0-1.48 1.219-2.68 2.723-2.68 1.504 0 2.723 1.2 2.723 2.68Zm-5.297 23.937V11.141l5.072-.66v18.796h-5.072Z" fill="#00B17B"/>
    <path d="M93.304 24.762c1.714 0 3.543-.147 4.848-.662 3.02-.99 4.14-3.598 4.14-7.672 0-2.827-.896-5.213-2.798-6.315-1.342-.844-3.543-1.065-5.855-1.065h-2.2v15.714h1.865ZM86.179 4.497h5.26c3.132 0 6.266.22 7.98.624 5.11.99 8.317 4.221 8.317 10.903 0 6.02-1.751 10.243-7.047 12.189-2.761 1.027-6.416 1.064-10.109 1.064h-4.4V4.497ZM121.657 21.31c-2.05.074-3.43.221-4.774.551-1.118.294-1.715.882-1.715 1.946 0 1.249.821 2.386 2.76 2.386 1.679 0 2.76-.66 3.729-1.505v-3.377Zm.337 7.967-.113-1.909c-1.605 1.799-3.505 2.313-5.482 2.313-4.177 0-6.154-3.084-6.154-5.874 0-2.643 1.267-4.038 3.543-4.699 2.088-.588 4.81-.808 7.832-.918v-.955c0-.88-.15-1.651-.486-2.092-.41-.587-1.192-.808-2.498-.808-1.714 0-3.878.367-6.303 1.102l-.858-3.451c2.761-1.064 6.08-1.652 8.542-1.652 2.76 0 4.997.588 6.079 2.864.447.99.596 2.57.596 4.515v11.564h-4.698ZM137.904 29.571c-1.789 0-3.319-.662-4.102-1.652-.746-1.028-1.119-2.534-1.119-5.14v-8.04h-2.91v-3.525l3.098-.366.185-4.552 4.7-.551v5.14h4.14v3.854h-4.14v7.122c0 1.616.148 2.57.522 3.085.373.439.932.66 1.753.66.932 0 1.602-.11 2.46-.258l.522 3.561c-1.341.405-2.722.662-5.109.662M156.964 21.31c-2.05.074-3.43.221-4.773.551-1.119.294-1.716.882-1.716 1.946 0 1.249.821 2.386 2.76 2.386 1.68 0 2.76-.66 3.729-1.505v-3.377Zm.337 7.967-.113-1.909c-1.604 1.799-3.505 2.313-5.482 2.313-4.177 0-6.153-3.084-6.153-5.874 0-2.643 1.266-4.038 3.543-4.699 2.088-.588 4.81-.808 7.832-.918v-.955c0-.88-.15-1.651-.487-2.092-.41-.587-1.192-.808-2.497-.808-1.715 0-3.879.367-6.304 1.102l-.857-3.451c2.76-1.064 6.079-1.652 8.541-1.652 2.76 0 4.997.588 6.08 2.864.446.99.596 2.57.596 4.515v11.564h-4.7Z" fill="#01519E"/>
  </g>
</svg>